# 3ds Max Wavefront OBJ Exporter v0.97b - (c)2007 guruware
# File Created: 07.09.2017 18:24:24

mtllib Twinkie.mtl

#
# object Box001
#

v  -244966.0156 393073.9375 1133357.3750
v  -288493.2813 393073.9375 1125682.3750
v  -305293.1250 393073.9375 1120181.5000
v  -313581.4375 393073.9375 1112985.7500
v  -317508.4375 393073.9375 1102736.2500
v  -316931.6250 393073.9375 1085068.1250
v  -276382.7188 393073.9375 855104.0000
v  -270881.9063 393073.9375 838304.1250
v  -263686.1875 393073.9375 830015.8125
v  -253436.6406 393073.9375 826088.8125
v  -235768.5469 393073.9375 826665.6250
v  -163802.9375 393073.9375 874954.8750
v  -192241.2813 393073.9375 834340.6875
v  -175441.4375 393073.9375 839841.5000
v  -167153.1250 393073.9375 847037.1875
v  -163226.1250 393073.9375 857286.7500
v  -227297.9219 393073.9375 1133934.1250
v  -217048.3750 393073.9375 1130007.1250
v  -209852.6563 393073.9375 1121718.8750
v  -204351.8438 393073.9375 1104919.0000
v  -237962.8281 514119.9688 1100138.2500
v  -197022.0469 514119.9688 867951.6250
v  -242771.7344 514119.9688 859884.7500
v  -283712.5000 514119.9688 1092071.3750
v  -188911.7500 408951.1875 1108787.2500
v  -147970.9688 408951.1875 876600.6875
v  -147970.9688 464312.1875 876600.6875
v  -188911.7500 464312.1875 1108787.2500
v  -188373.0156 408951.1875 818900.5625
v  -234122.7188 408951.1875 810833.6875
v  -234122.7188 464312.1875 810833.6875
v  -188373.0156 464312.1875 818900.5625
v  -291822.8125 408951.1875 851235.6875
v  -332763.5938 408951.1875 1083422.3750
v  -332763.5938 464312.1875 1083422.3750
v  -291822.8125 464312.1875 851235.6875
v  -292361.5625 408951.1875 1141122.3750
v  -246611.8438 408951.1875 1149189.3750
v  -246611.8438 464312.1875 1149189.3750
v  -292361.5625 464312.1875 1141122.3750
v  -195524.8906 473845.7188 1128365.3750
v  -195761.3750 464312.1875 1129706.5000
v  -168794.9688 473845.7188 825513.7500
v  -167453.7188 464312.1875 825750.2500
v  -311939.5938 473845.7188 1134509.2500
v  -313280.8438 464312.1875 1134272.7500
v  -285209.6875 473845.7188 831657.6875
v  -284973.1875 464312.1875 830316.4375
v  -175562.1875 511006.9688 871735.6250
v  -216502.9688 511006.9688 1103922.2500
v  -238987.7969 511007.0000 838424.8750
v  -193238.0938 511006.9688 846491.8125
v  -305172.3750 511006.9688 1088287.3750
v  -264231.5938 511006.9688 856100.8125
v  -241746.7656 511007.0000 1121598.1250
v  -287496.4688 511006.9688 1113531.2500
v  -147252.7188 464312.1875 854600.2500
v  -147252.7188 408951.1875 854600.2500
v  -195761.3750 408951.1875 1129706.5000
v  -256123.1250 464312.1875 810115.3750
v  -256123.1250 408951.1875 810115.3750
v  -333481.8438 464312.1875 1105422.7500
v  -333481.8438 408951.1875 1105422.7500
v  -191977.4375 486103.0938 1108246.7500
v  -193632.9063 484741.1875 1117635.3750
v  -204012.4688 499333.3125 1122719.8750
v  -201174.5156 501668.0000 1106625.0000
v  -220050.4219 508088.5625 1124040.7500
v  -194815.4063 480655.3750 1124341.6250
v  -206039.5938 492329.0938 1134216.2500
v  -222584.3125 499333.3125 1138411.2500
v  -244449.5938 501668.0313 1136926.5000
v  -207255.8594 480655.3750 1141114.0000
v  -224104.6563 484741.1875 1147033.5000
v  -246071.2813 486103.1250 1146123.6250
v  -207661.2813 464312.1875 1143413.3750
v  -224611.4375 464312.1875 1149907.6250
v  -188913.5781 486103.0938 821966.2500
v  -179524.8906 484741.1563 823621.7500
v  -174440.3906 499333.2813 834001.3125
v  -190535.2813 501668.0000 831163.3750
v  -173119.5000 508088.5625 850039.2500
v  -172818.6875 480655.3750 824804.2500
v  -162944.0469 492329.0625 836028.4375
v  -158749.0625 499333.2813 852573.1875
v  -160233.7344 501668.0313 874438.4375
v  -156046.2344 480655.3750 837244.6875
v  -150126.7969 484741.1563 854093.5000
v  -151036.6563 486103.0938 876060.1250
v  -153746.9688 464312.1875 837650.1250
v  -291821.0000 486103.0938 1138056.7500
v  -301209.6563 484741.1563 1136401.2500
v  -306294.1875 499333.2813 1126021.7500
v  -290199.2813 501668.0000 1128859.6250
v  -307615.0625 508088.5625 1109983.7500
v  -307915.8750 480655.3750 1135218.7500
v  -317790.5000 492329.0625 1123994.6250
v  -321985.5000 499333.2813 1107449.8750
v  -320500.8125 501668.0313 1085584.6250
v  -324688.3125 480655.3750 1122778.2500
v  -330607.7500 484741.1563 1105929.5000
v  -329697.9063 486103.0938 1083962.8750
v  -326987.5938 464312.1875 1122372.8750
v  -288757.1250 486103.0938 851776.2500
v  -287101.6563 484741.1875 842387.6250
v  -276722.0938 499333.3125 837303.0625
v  -279560.0625 501668.0000 853398.0000
v  -260684.1406 508088.5625 835982.1875
v  -285919.1563 480655.3750 835681.3750
v  -274694.9688 492329.0938 825806.7500
v  -258150.2500 499333.3125 821611.7500
v  -236284.9688 501668.0313 823096.4375
v  -273478.6875 480655.3750 818908.9375
v  -256629.9063 484741.1875 812989.5000
v  -234663.2813 486103.1250 813899.3750
v  -273073.2813 464312.1875 816609.6250
v  -153746.9688 408951.1875 837650.1250
v  -167453.7344 408951.1875 825750.2500
v  -207661.2813 408951.1875 1143413.3750
v  -224611.4375 408951.1875 1149907.6250
v  -273073.2813 408951.1875 816609.6250
v  -284973.1875 408951.1875 830316.4375
v  -326987.5938 408951.1875 1122372.8750
v  -313280.8125 408951.1875 1134272.7500
v  -290185.6250 394066.2500 1132437.3750
v  -245686.0625 394066.2500 1140283.8750
v  -283137.7500 394066.2500 853411.6250
v  -323858.1250 394066.2500 1084348.1250
v  -190548.9219 394066.2500 827585.6250
v  -235048.5000 394066.2500 819739.1250
v  -197596.7969 394066.2500 1106611.3750
v  -156876.4531 394066.2500 875674.8750
v  -224779.3438 402004.8750 1148909.2500
v  -246508.9844 402004.8750 1148199.8750
v  -148251.0469 402004.8750 854768.1875
v  -148960.4688 402004.8750 876497.8125
v  -332483.5000 402004.8750 1105254.7500
v  -331774.0938 402004.8750 1083525.1250
v  -255955.2188 402004.8750 811113.7500
v  -234225.5781 402004.8750 811823.1875
v  -189876.7500 402004.8750 1108545.5000
v  -196642.0938 402004.8750 1129207.2500
v  -208247.9844 402004.8750 1142575.5000
v  -188614.7813 402004.8750 819865.5625
v  -167952.9688 402004.8750 826630.9375
v  -154584.8438 402004.8750 838236.8125
v  -292119.7813 402004.8750 1140157.3750
v  -312781.5938 402004.8750 1133392.1250
v  -326149.7188 402004.8750 1121786.2500
v  -290857.8125 402004.8750 851477.5000
v  -284092.4688 402004.8750 830815.6875
v  -272486.5938 402004.8750 817447.5625
v  -293495.6875 397043.2500 1143737.7500
v  -246440.5938 397043.2500 1152034.8750
v  -289922.7188 397043.2500 846939.8125
v  -332447.3750 397043.2500 1088109.0000
v  -187238.8594 397043.2500 816285.2500
v  -234293.9688 397043.2500 807988.1875
v  -190811.8594 397043.2500 1113083.2500
v  -148287.2031 397043.2500 871914.0000
v  -224661.9063 397043.2500 1152745.8750
v  -226122.5781 394066.2500 1140922.5000
v  -147576.1875 397043.2500 850135.3125
v  -156237.7500 394066.2500 856111.4375
v  -333158.3750 397043.2500 1109887.6250
v  -324496.8125 394066.2500 1103911.6250
v  -256072.6563 397043.2500 807277.1250
v  -254611.9844 394066.2500 819100.5000
v  -197592.4688 397043.2500 1133791.6250
v  -203687.7188 394066.2500 1125213.5000
v  -208757.9063 397043.2500 1146652.3750
v  -212941.5156 394066.2500 1135872.3750
v  -166530.4219 397043.2500 823065.8750
v  -171946.8125 394066.2500 833676.5625
v  -153669.6250 397043.2500 834231.3125
v  -161287.9375 394066.2500 842930.3750
v  -314204.1250 397043.2500 1136957.1250
v  -308787.7500 394066.2500 1126346.5000
v  -327064.9375 397043.2500 1125791.7500
v  -319446.6250 394066.2500 1117092.6250
v  -283142.0938 397043.2500 826231.3750
v  -277046.8438 394066.2500 834809.5000
v  -271976.6563 397043.2500 813370.5625
v  -267793.0313 394066.2500 824150.6250
# 184 vertices

vn 0.0000 -1.0000 -0.0000
vn 0.0000 1.0000 -0.0000
vn 0.9848 0.0000 0.1736
vn 0.1736 0.0000 -0.9848
vn -0.9848 0.0000 -0.1736
vn -0.1736 0.0000 0.9848
vn 0.9502 0.0202 0.3111
vn 0.3111 0.0202 -0.9502
vn -0.3111 0.0202 0.9502
vn -0.9502 0.0202 -0.3111
vn 0.1393 0.9899 0.0246
vn 0.0246 0.9899 -0.1393
vn -0.1393 0.9899 -0.0246
vn -0.0246 0.9899 0.1393
vn 0.9995 0.0000 0.0326
vn 0.9504 0.0000 0.3112
vn 0.0326 -0.0000 -0.9995
vn -0.9995 0.0000 -0.0326
vn 0.9712 0.1414 0.1918
vn 0.8295 0.5131 0.2207
vn 0.4818 0.8511 0.2084
vn 0.1136 0.9802 0.1622
vn 0.9632 0.1179 0.2417
vn 0.8057 0.4319 0.4052
vn 0.4413 0.7296 0.5224
vn 0.0548 0.8484 0.5265
vn 0.9550 0.0707 0.2881
vn 0.7757 0.2592 0.5754
vn 0.3907 0.4378 0.8098
vn -0.0041 0.5090 0.8607
vn 0.7531 0.0733 0.6538
vn 0.3551 0.1216 0.9269
vn -0.0323 0.1400 0.9896
vn 0.1918 0.1414 -0.9712
vn 0.2207 0.5131 -0.8295
vn 0.2084 0.8511 -0.4818
vn 0.1622 0.9802 -0.1136
vn 0.2417 0.1179 -0.9632
vn 0.4052 0.4319 -0.8057
vn 0.5224 0.7296 -0.4413
vn 0.5265 0.8484 -0.0548
vn 0.2881 0.0707 -0.9550
vn 0.5754 0.2592 -0.7757
vn 0.8098 0.4378 -0.3907
vn 0.8607 0.5090 0.0041
vn 0.6538 0.0733 -0.7531
vn 0.9269 0.1216 -0.3551
vn 0.9896 0.1400 0.0323
vn -0.1918 0.1414 0.9712
vn -0.2207 0.5131 0.8295
vn -0.2084 0.8511 0.4818
vn -0.1622 0.9802 0.1136
vn -0.2417 0.1179 0.9632
vn -0.4052 0.4319 0.8057
vn -0.5224 0.7296 0.4413
vn -0.5265 0.8484 0.0548
vn -0.2881 0.0707 0.9550
vn -0.5754 0.2592 0.7757
vn -0.8098 0.4378 0.3907
vn -0.8607 0.5090 -0.0041
vn -0.6538 0.0733 0.7531
vn -0.9269 0.1216 0.3551
vn -0.9896 0.1400 -0.0323
vn -0.9712 0.1414 -0.1918
vn -0.8295 0.5131 -0.2207
vn -0.4818 0.8511 -0.2084
vn -0.1136 0.9802 -0.1622
vn -0.9632 0.1179 -0.2417
vn -0.8057 0.4319 -0.4052
vn -0.4413 0.7296 -0.5224
vn -0.0548 0.8484 -0.5265
vn -0.9550 0.0707 -0.2881
vn -0.7757 0.2592 -0.5754
vn -0.3907 0.4378 -0.8098
vn 0.0041 0.5090 -0.8607
vn -0.7531 0.0733 -0.6538
vn -0.3551 0.1216 -0.9269
vn 0.0323 0.1400 -0.9896
vn 0.5067 0.8575 0.0893
vn 0.8445 0.5145 0.1489
vn 0.9749 0.1414 0.1719
vn 0.0893 0.8575 -0.5067
vn 0.1489 0.5145 -0.8445
vn 0.1719 0.1414 -0.9749
vn -0.5067 0.8575 -0.0893
vn -0.8445 0.5145 -0.1489
vn -0.9749 0.1414 -0.1719
vn -0.0893 0.8575 0.5067
vn -0.1489 0.5145 0.8445
vn -0.1719 0.1414 0.9749
vn 0.9338 0.0000 -0.3578
vn 0.6556 -0.0000 -0.7551
vn 0.3112 -0.0000 -0.9504
vn 0.7551 0.0000 0.6556
vn 0.3578 -0.0000 0.9338
vn -0.0326 -0.0000 0.9995
vn -0.3578 -0.0000 -0.9338
vn -0.7551 0.0000 -0.6556
vn -0.9504 0.0000 -0.3112
vn -0.9338 0.0000 0.3578
vn -0.6556 -0.0000 0.7551
vn -0.3112 -0.0000 0.9504
vn -0.0246 -0.9899 0.1393
vn -0.1393 -0.9899 -0.0246
vn 0.0246 -0.9899 -0.1393
vn 0.1393 -0.9899 0.0246
vn -0.0323 -0.1414 0.9894
vn 0.9894 -0.1414 0.0323
vn -0.9894 -0.1414 -0.0323
vn 0.0323 -0.1414 -0.9894
vn 0.9408 -0.1414 0.3080
vn 0.7475 -0.1414 0.6490
vn 0.3542 -0.1414 0.9244
vn 0.3080 -0.1414 -0.9408
vn 0.6490 -0.1414 -0.7475
vn 0.9244 -0.1414 -0.3542
vn -0.3080 -0.1414 0.9408
vn -0.6490 -0.1414 0.7475
vn -0.9244 -0.1414 0.3542
vn -0.9408 -0.1414 -0.3080
vn -0.7475 -0.1414 -0.6490
vn -0.3542 -0.1414 -0.9244
vn -0.0428 -0.9691 0.2428
vn -0.1383 0.6045 0.7845
vn -0.1719 -0.1414 0.9749
vn -0.3509 -0.9344 -0.0619
vn -0.9845 -0.0268 -0.1736
vn -0.9749 -0.1414 -0.1719
vn 0.0428 -0.9691 -0.2428
vn 0.1383 0.6045 -0.7845
vn 0.1719 -0.1414 -0.9749
vn 0.3509 -0.9344 0.0619
vn 0.9845 -0.0268 0.1736
vn 0.9749 -0.1414 0.1719
vn -0.0258 0.6111 0.7911
vn -0.0080 -0.9695 0.2451
vn -0.0046 -0.9899 0.1413
vn 0.9940 0.1049 0.0325
vn 0.3317 -0.9433 0.0108
vn 0.1413 -0.9899 0.0046
vn -0.9940 0.1049 -0.0325
vn -0.3317 -0.9433 -0.0108
vn -0.1413 -0.9899 -0.0046
vn 0.0258 0.6111 -0.7911
vn 0.0080 -0.9695 -0.2451
vn 0.0046 -0.9899 -0.1413
vn 0.9451 0.1049 0.3095
vn 0.3154 -0.9433 0.1033
vn 0.1344 -0.9899 0.0440
vn 0.6857 0.4187 0.5953
vn 0.2111 -0.9601 0.1832
vn 0.1068 -0.9899 0.0927
vn 0.2889 0.5899 0.7540
vn 0.0892 -0.9684 0.2328
vn 0.0506 -0.9899 0.1321
vn 0.2463 0.6111 -0.7522
vn 0.0763 -0.9695 -0.2330
vn 0.0440 -0.9899 -0.1344
vn 0.5294 0.5899 -0.6097
vn 0.1635 -0.9684 -0.1883
vn 0.0927 -0.9899 -0.1068
vn 0.8480 0.4187 -0.3249
vn 0.2610 -0.9601 -0.1000
vn 0.1321 -0.9899 -0.0506
vn -0.2463 0.6111 0.7522
vn -0.0763 -0.9695 0.2330
vn -0.0440 -0.9899 0.1344
vn -0.5294 0.5899 0.6097
vn -0.1635 -0.9684 0.1883
vn -0.0927 -0.9899 0.1068
vn -0.8480 0.4187 0.3249
vn -0.2610 -0.9601 0.1000
vn -0.1321 -0.9899 0.0506
vn -0.9451 0.1049 -0.3095
vn -0.3154 -0.9433 -0.1033
vn -0.1344 -0.9899 -0.0440
vn -0.6857 0.4187 -0.5953
vn -0.2111 -0.9601 -0.1832
vn -0.1068 -0.9899 -0.0927
vn -0.2889 0.5899 -0.7540
vn -0.0892 -0.9684 -0.2328
vn -0.0506 -0.9899 -0.1321
# 182 vertex normals

vt 0.9527 0.3486 0.0000
vt 0.9517 0.6524 0.0000
vt 0.9453 0.7713 0.0000
vt 0.9269 0.8353 0.0000
vt 0.9004 0.8746 0.0000
vt 0.8477 0.8912 0.0000
vt 0.1521 0.8912 0.0000
vt 0.0997 0.8736 0.0000
vt 0.0719 0.8353 0.0000
vt 0.0552 0.7713 0.0000
vt 0.0477 0.6505 0.0000
vt 0.1518 0.1087 0.0000
vt 0.0473 0.3481 0.0000
vt 0.0552 0.2289 0.0000
vt 0.0718 0.1647 0.0000
vt 0.1000 0.1257 0.0000
vt 0.9453 0.2285 0.0000
vt 0.9288 0.1647 0.0000
vt 0.8994 0.1257 0.0000
vt 0.8487 0.1087 0.0000
vt 0.1485 0.3410 0.0000
vt 0.8516 0.3410 0.0000
vt 0.8516 0.6586 0.0000
vt 0.1485 0.6586 0.0000
vt 0.1485 0.1309 0.0000
vt 0.8515 0.1309 0.0000
vt 0.8516 0.5873 0.0000
vt 0.1485 0.5873 0.0000
vt 0.3410 0.1316 0.0000
vt 0.6589 0.1309 0.0000
vt 0.6586 0.5873 0.0000
vt 0.3410 0.5903 0.0000
vt 0.0000 1.0000 0.0000
vt 0.8515 0.7851 0.0000
vt 0.8515 0.8510 0.0000
vt 0.1485 0.8510 0.0000
vt 0.1485 0.7851 0.0000
vt 0.6683 0.3055 0.0000
vt 0.6716 0.2116 0.0000
vt 0.3544 0.2175 0.0000
vt 0.3510 0.3107 0.0000
vt -0.0347 0.4939 0.0000
vt -0.1600 0.4618 0.0000
vt -0.1775 -0.0727 0.0000
vt -0.0479 -0.0216 0.0000
vt 1.0448 -0.0232 0.0000
vt 1.1734 -0.0746 0.0000
vt 1.1551 0.4561 0.0000
vt 1.0310 0.4889 0.0000
vt -0.0045 0.5211 0.0000
vt -0.0555 0.4990 0.0000
vt -0.0542 0.0925 0.0000
vt -0.0035 0.1021 0.0000
vt 0.0699 0.7587 0.0000
vt -0.0175 0.8601 0.0000
vt -0.1136 0.8917 0.0000
vt -0.1357 0.8769 0.0000
vt -0.2185 0.8532 0.0000
vt -0.1059 0.8013 0.0000
vt -0.1289 0.6262 0.0000
vt -0.2049 0.3518 0.0000
vt 0.1881 0.7605 0.0000
vt 0.0705 0.8615 0.0000
vt -0.0119 0.8932 0.0000
vt -0.0340 0.8785 0.0000
vt -0.0590 0.8557 0.0000
vt -0.0179 0.8026 0.0000
vt -0.0107 0.6280 0.0000
vt -0.0124 0.3548 0.0000
vt 0.8516 0.7192 0.0000
vt 0.1485 0.7192 0.0000
vt 0.8516 0.6532 0.0000
vt 0.1485 0.6532 0.0000
vt 0.6651 0.3995 0.0000
vt 0.3477 0.4039 0.0000
vt 0.6618 0.4934 0.0000
vt 0.3443 0.4971 0.0000
vt 0.0905 0.5261 0.0000
vt 0.0817 0.0294 0.0000
vt 0.2157 0.5582 0.0000
vt 0.2114 0.0805 0.0000
vt 0.9161 0.0281 0.0000
vt 0.9068 0.5217 0.0000
vt 0.7875 0.0795 0.0000
vt 0.7827 0.5545 0.0000
vt 0.0465 0.5432 0.0000
vt 0.0471 0.1117 0.0000
vt 0.0975 0.5653 0.0000
vt 0.0978 0.1213 0.0000
vt 0.3442 0.0766 0.0000
vt 0.3453 0.0583 0.0000
vt 0.6475 0.0562 0.0000
vt 0.6504 0.0749 0.0000
vt 0.1510 0.2307 0.0000
vt 0.1519 0.2640 0.0000
vt 0.8482 0.2640 0.0000
vt 0.8490 0.2307 0.0000
vt 1.0553 0.2022 0.0000
vt 1.0920 0.1935 0.0000
vt 1.0999 0.3430 0.0000
vt 1.0631 0.3444 0.0000
vt 0.0952 0.0298 0.0000
vt 0.0937 -0.0022 0.0000
vt 0.1588 -0.0163 0.0000
vt 0.1571 0.0150 0.0000
vt 0.9047 0.9711 0.0000
vt 0.9061 1.0033 0.0000
vt 0.8406 1.0173 0.0000
vt 0.8424 0.9858 0.0000
vt -0.0559 0.7977 0.0000
vt -0.0929 0.8065 0.0000
vt -0.1008 0.6566 0.0000
vt -0.0636 0.6551 0.0000
vt 0.8431 0.0159 0.0000
vt 0.8413 -0.0150 0.0000
vt 0.9061 -0.0010 0.0000
vt 0.9044 0.0307 0.0000
vt 0.9499 0.0316 0.0000
vt 0.9668 0.0002 0.0000
vt 1.0138 0.0639 0.0000
vt 0.9925 0.0891 0.0000
vt 1.0187 0.0975 0.0000
vt 1.0487 0.0750 0.0000
vt 1.0763 0.1815 0.0000
vt 1.0435 0.1932 0.0000
vt -0.0622 0.3439 0.0000
vt -0.0987 0.3425 0.0000
vt -0.0907 0.1933 0.0000
vt -0.0543 0.2022 0.0000
vt -0.0440 0.1932 0.0000
vt -0.0770 0.1813 0.0000
vt -0.0494 0.0746 0.0000
vt -0.0191 0.0971 0.0000
vt 0.0078 0.0908 0.0000
vt -0.0135 0.0661 0.0000
vt 0.0330 0.0024 0.0000
vt 0.0497 0.0333 0.0000
vt 1.0615 0.6550 0.0000
vt 1.0982 0.6559 0.0000
vt 1.0906 0.8051 0.0000
vt 1.0543 0.7966 0.0000
vt 1.0440 0.8092 0.0000
vt 1.0769 0.8218 0.0000
vt 1.0484 0.9284 0.0000
vt 1.0180 0.9051 0.0000
vt 0.9919 0.9070 0.0000
vt 1.0136 0.9310 0.0000
vt 0.9678 0.9948 0.0000
vt 0.9509 0.9647 0.0000
vt 0.1568 0.9854 0.0000
vt 0.1583 1.0168 0.0000
vt 0.0930 1.0026 0.0000
vt 0.0947 0.9703 0.0000
vt 0.0505 0.9660 0.0000
vt 0.0340 0.9968 0.0000
vt -0.0123 0.9334 0.0000
vt 0.0087 0.9089 0.0000
vt -0.0187 0.9029 0.0000
vt -0.0489 0.9255 0.0000
vt -0.0766 0.8189 0.0000
vt -0.0437 0.8070 0.0000
vt 0.3431 0.0949 0.0000
vt 0.6532 0.0936 0.0000
vt 0.3421 0.1132 0.0000
vt 0.6561 0.1122 0.0000
vt 0.1502 0.1974 0.0000
vt 0.8498 0.1974 0.0000
vt 0.1494 0.1642 0.0000
vt 0.8507 0.1642 0.0000
vt 1.0186 0.2110 0.0000
vt 1.0263 0.3458 0.0000
vt 0.9820 0.2197 0.0000
vt 0.9895 0.3472 0.0000
vt 0.0968 0.0618 0.0000
vt 0.1553 0.0462 0.0000
vt 0.0984 0.0938 0.0000
vt 0.1536 0.0775 0.0000
vt 0.9032 0.9390 0.0000
vt 0.8442 0.9542 0.0000
vt 0.9018 0.9068 0.0000
vt 0.8459 0.9227 0.0000
vt -0.0189 0.7889 0.0000
vt -0.0265 0.6536 0.0000
vt 0.0181 0.7801 0.0000
vt 0.0106 0.6520 0.0000
vt 0.8450 0.0468 0.0000
vt 0.9028 0.0624 0.0000
vt 0.8468 0.0778 0.0000
vt 0.9011 0.0941 0.0000
vt 0.9331 0.0630 0.0000
vt 0.9713 0.1143 0.0000
vt 0.9163 0.0944 0.0000
vt 0.9501 0.1395 0.0000
vt 0.9887 0.1199 0.0000
vt 1.0108 0.2050 0.0000
vt 0.9588 0.1423 0.0000
vt 0.9780 0.2167 0.0000
vt -0.0257 0.3453 0.0000
vt -0.0178 0.2111 0.0000
vt 0.0108 0.3467 0.0000
vt 0.0187 0.2200 0.0000
vt -0.0109 0.2051 0.0000
vt 0.0112 0.1197 0.0000
vt 0.0221 0.2170 0.0000
vt 0.0415 0.1422 0.0000
vt 0.0292 0.1154 0.0000
vt 0.0665 0.0641 0.0000
vt 0.0505 0.1401 0.0000
vt 0.0832 0.0949 0.0000
vt 1.0249 0.6542 0.0000
vt 1.0180 0.7882 0.0000
vt 0.9883 0.6533 0.0000
vt 0.9816 0.7797 0.0000
vt 1.0111 0.7965 0.0000
vt 0.9877 0.8818 0.0000
vt 0.9782 0.7839 0.0000
vt 0.9573 0.8585 0.0000
vt 0.9702 0.8831 0.0000
vt 0.9341 0.9347 0.0000
vt 0.9486 0.8592 0.0000
vt 0.9172 0.9046 0.0000
vt 0.1552 0.9540 0.0000
vt 0.0964 0.9381 0.0000
vt 0.1536 0.9226 0.0000
vt 0.0981 0.9059 0.0000
vt 0.0669 0.9352 0.0000
vt 0.0298 0.8843 0.0000
vt 0.0833 0.9044 0.0000
vt 0.0508 0.8598 0.0000
vt 0.0115 0.8804 0.0000
vt -0.0107 0.7951 0.0000
vt 0.0417 0.8578 0.0000
vt 0.0222 0.7832 0.0000
# 233 texture coords

g Box001
usemtl 02___Default
s off
f -184/-233/-182 -183/-232/-182 -182/-231/-182 -181/-230/-182 
f -184/-233/-182 -181/-230/-182 -180/-229/-182 -179/-228/-182 
f -179/-228/-182 -178/-227/-182 -177/-226/-182 -176/-225/-182 
f -179/-228/-182 -176/-225/-182 -175/-224/-182 -174/-223/-182 
f -184/-233/-182 -179/-228/-182 -174/-223/-182 -173/-222/-182 
f -174/-223/-182 -172/-221/-182 -171/-220/-182 -170/-219/-182 
f -174/-223/-182 -170/-219/-182 -169/-218/-182 -173/-222/-182 
f -168/-217/-182 -184/-233/-182 -173/-222/-182 -167/-216/-182 
f -166/-215/-182 -167/-216/-182 -173/-222/-182 -165/-214/-182 
f -164/-213/-181 -163/-212/-181 -162/-211/-181 -161/-210/-181 
f -160/-209/-180 -159/-208/-180 -158/-207/-180 -157/-206/-180 
f -156/-205/-179 -155/-204/-179 -154/-203/-179 -153/-202/-179 
f -152/-209/-178 -151/-208/-178 -150/-207/-178 -149/-206/-178 
f -148/-205/-177 -147/-204/-177 -146/-203/-177 -145/-202/-177 
f -157/-206/-176 -144/-201/-176 -143/-201/-176 
f -153/-202/-175 -142/-201/-175 -141/-201/-175 
f -145/-202/-174 -140/-201/-174 -139/-201/-174 
f -149/-206/-173 -138/-201/-173 -137/-201/-173 
f -136/-200/-172 -163/-199/-172 -164/-198/-172 -135/-197/-172 
f -134/-196/-171 -162/-195/-171 -163/-194/-171 -133/-193/-171 
f -132/-200/-170 -161/-199/-170 -162/-198/-170 -131/-197/-170 
f -130/-196/-169 -164/-195/-169 -161/-194/-169 -129/-193/-169 
f -128/-192/-168 -158/-191/-168 -159/-190/-168 -127/-189/-168 
f -126/-188/-167 -160/-187/-167 -157/-186/-167 -143/-185/-167 
f -125/-184/-166 -154/-183/-166 -155/-182/-166 -124/-181/-166 
f -123/-192/-165 -150/-191/-165 -151/-190/-165 -122/-189/-165 
f -157/-206/-164 -121/-180/-164 -120/-201/-164 
f -119/-201/-163 -120/-201/-163 -121/-180/-163 -118/-179/-163 
f -117/-201/-162 -119/-201/-162 -118/-179/-162 -135/-178/-162 
f -130/-177/-161 -117/-201/-161 -135/-178/-161 -164/-176/-161 
f -157/-206/-160 -120/-201/-160 -116/-201/-160 
f -115/-201/-159 -116/-201/-159 -120/-201/-159 -119/-201/-159 
f -114/-201/-158 -115/-201/-158 -119/-201/-158 -117/-201/-158 
f -113/-175/-157 -114/-201/-157 -117/-201/-157 -130/-177/-157 
f -157/-206/-156 -116/-201/-156 -144/-201/-156 
f -112/-201/-155 -144/-201/-155 -116/-201/-155 -115/-201/-155 
f -111/-201/-154 -112/-201/-154 -115/-201/-154 -114/-201/-154 
f -110/-174/-153 -111/-201/-153 -114/-201/-153 -113/-175/-153 
f -109/-201/-152 -143/-201/-152 -144/-201/-152 -112/-201/-152 
f -108/-201/-151 -109/-201/-151 -112/-201/-151 -111/-201/-151 
f -146/-173/-150 -108/-201/-150 -111/-201/-150 -110/-174/-150 
f -153/-202/-149 -107/-172/-149 -106/-201/-149 
f -105/-201/-148 -106/-201/-148 -107/-172/-148 -104/-171/-148 
f -103/-201/-147 -105/-201/-147 -104/-171/-147 -133/-170/-147 
f -136/-169/-146 -103/-201/-146 -133/-170/-146 -163/-168/-146 
f -153/-202/-145 -106/-201/-145 -102/-201/-145 
f -101/-201/-144 -102/-201/-144 -106/-201/-144 -105/-201/-144 
f -100/-201/-143 -101/-201/-143 -105/-201/-143 -103/-201/-143 
f -99/-167/-142 -100/-201/-142 -103/-201/-142 -136/-169/-142 
f -153/-202/-141 -102/-201/-141 -142/-201/-141 
f -98/-201/-140 -142/-201/-140 -102/-201/-140 -101/-201/-140 
f -97/-201/-139 -98/-201/-139 -101/-201/-139 -100/-201/-139 
f -96/-166/-138 -97/-201/-138 -100/-201/-138 -99/-167/-138 
f -95/-201/-137 -141/-201/-137 -142/-201/-137 -98/-201/-137 
f -128/-201/-136 -95/-201/-136 -98/-201/-136 -97/-201/-136 
f -158/-165/-135 -128/-201/-135 -97/-201/-135 -96/-166/-135 
f -145/-202/-134 -94/-172/-134 -93/-201/-134 
f -92/-201/-133 -93/-201/-133 -94/-172/-133 -91/-171/-133 
f -90/-201/-132 -92/-201/-132 -91/-171/-132 -129/-170/-132 
f -132/-169/-131 -90/-201/-131 -129/-170/-131 -161/-168/-131 
f -145/-202/-130 -93/-201/-130 -89/-201/-130 
f -88/-201/-129 -89/-201/-129 -93/-201/-129 -92/-201/-129 
f -87/-201/-128 -88/-201/-128 -92/-201/-128 -90/-201/-128 
f -86/-167/-127 -87/-201/-127 -90/-201/-127 -132/-169/-127 
f -145/-202/-126 -89/-201/-126 -140/-201/-126 
f -85/-201/-125 -140/-201/-125 -89/-201/-125 -88/-201/-125 
f -84/-201/-124 -85/-201/-124 -88/-201/-124 -87/-201/-124 
f -83/-166/-123 -84/-201/-123 -87/-201/-123 -86/-167/-123 
f -82/-201/-122 -139/-201/-122 -140/-201/-122 -85/-201/-122 
f -123/-201/-121 -82/-201/-121 -85/-201/-121 -84/-201/-121 
f -150/-165/-120 -123/-201/-120 -84/-201/-120 -83/-166/-120 
f -149/-206/-119 -81/-180/-119 -80/-201/-119 
f -79/-201/-118 -80/-201/-118 -81/-180/-118 -78/-179/-118 
f -77/-201/-117 -79/-201/-117 -78/-179/-117 -131/-178/-117 
f -134/-177/-116 -77/-201/-116 -131/-178/-116 -162/-176/-116 
f -149/-206/-115 -80/-201/-115 -76/-201/-115 
f -75/-201/-114 -76/-201/-114 -80/-201/-114 -79/-201/-114 
f -74/-201/-113 -75/-201/-113 -79/-201/-113 -77/-201/-113 
f -73/-175/-112 -74/-201/-112 -77/-201/-112 -134/-177/-112 
f -149/-206/-111 -76/-201/-111 -138/-201/-111 
f -72/-201/-110 -138/-201/-110 -76/-201/-110 -75/-201/-110 
f -71/-201/-109 -72/-201/-109 -75/-201/-109 -74/-201/-109 
f -70/-174/-108 -71/-201/-108 -74/-201/-108 -73/-175/-108 
f -69/-201/-107 -137/-201/-107 -138/-201/-107 -72/-201/-107 
f -125/-201/-106 -69/-201/-106 -72/-201/-106 -71/-201/-106 
f -154/-173/-105 -125/-201/-105 -71/-201/-105 -70/-174/-105 
f -99/-164/-104 -136/-200/-104 -135/-197/-104 -118/-163/-104 
f -96/-162/-103 -99/-164/-103 -118/-163/-103 -121/-161/-103 
f -158/-207/-102 -96/-162/-102 -121/-161/-102 -157/-206/-102 
f -73/-160/-101 -134/-196/-101 -133/-193/-101 -104/-159/-101 
f -70/-158/-100 -73/-160/-100 -104/-159/-100 -107/-157/-100 
f -154/-203/-99 -70/-158/-99 -107/-157/-99 -153/-202/-99 
f -86/-164/-98 -132/-200/-98 -131/-197/-98 -78/-163/-98 
f -83/-162/-97 -86/-164/-97 -78/-163/-97 -81/-161/-97 
f -150/-207/-96 -83/-162/-96 -81/-161/-96 -149/-206/-96 
f -113/-160/-95 -130/-196/-95 -129/-193/-95 -91/-159/-95 
f -110/-158/-94 -113/-160/-94 -91/-159/-94 -94/-157/-94 
f -146/-203/-93 -110/-158/-93 -94/-157/-93 -145/-202/-93 
f -95/-156/-92 -128/-192/-92 -127/-189/-92 -68/-155/-92 
f -141/-154/-91 -95/-156/-91 -68/-155/-91 -67/-153/-91 
f -153/-202/-90 -141/-154/-90 -67/-153/-90 -156/-205/-90 
f -66/-152/-89 -126/-188/-89 -143/-185/-89 -109/-151/-89 
f -65/-150/-88 -66/-152/-88 -109/-151/-88 -108/-149/-88 
f -147/-204/-87 -65/-150/-87 -108/-149/-87 -146/-203/-87 
f -69/-148/-86 -125/-184/-86 -124/-181/-86 -64/-147/-86 
f -137/-146/-85 -69/-148/-85 -64/-147/-85 -63/-145/-85 
f -149/-206/-84 -137/-146/-84 -63/-145/-84 -152/-209/-84 
f -82/-156/-83 -123/-192/-83 -122/-189/-83 -62/-155/-83 
f -139/-154/-82 -82/-156/-82 -62/-155/-82 -61/-153/-82 
f -145/-202/-81 -139/-154/-81 -61/-153/-81 -148/-205/-81 
f -60/-144/-80 -183/-143/-80 -184/-142/-80 -59/-141/-80 
f -58/-140/-79 -178/-139/-79 -179/-138/-79 -57/-137/-79 
f -56/-144/-78 -172/-143/-78 -174/-142/-78 -55/-141/-78 
f -54/-140/-77 -165/-139/-77 -173/-138/-77 -53/-137/-77 
f -52/-136/-76 -65/-135/-76 -147/-134/-76 -51/-133/-76 
f -50/-132/-75 -127/-131/-75 -159/-130/-75 -49/-129/-75 
f -48/-128/-74 -122/-127/-74 -151/-126/-74 -47/-125/-74 
f -46/-124/-73 -124/-123/-73 -155/-122/-73 -45/-121/-73 
f -44/-120/-72 -160/-119/-72 -126/-118/-72 -43/-117/-72 
f -43/-116/-71 -126/-115/-71 -66/-114/-71 -42/-113/-71 
f -42/-112/-70 -66/-111/-70 -65/-110/-70 -52/-109/-70 
f -41/-108/-69 -156/-107/-69 -67/-106/-69 -40/-105/-69 
f -40/-104/-68 -67/-103/-68 -68/-102/-68 -39/-101/-68 
f -39/-100/-67 -68/-99/-67 -127/-98/-67 -50/-97/-67 
f -38/-96/-66 -148/-95/-66 -61/-94/-66 -37/-93/-66 
f -37/-92/-65 -61/-91/-65 -62/-90/-65 -36/-89/-65 
f -36/-88/-64 -62/-87/-64 -122/-86/-64 -48/-85/-64 
f -35/-84/-63 -152/-83/-63 -63/-82/-63 -34/-81/-63 
f -34/-80/-62 -63/-79/-62 -64/-78/-62 -33/-77/-62 
f -33/-76/-61 -64/-75/-61 -124/-74/-61 -46/-73/-61 
f -32/-72/-60 -60/-144/-60 -59/-141/-60 -31/-71/-60 
f -38/-70/-59 -32/-72/-59 -31/-71/-59 -51/-69/-59 
f -148/-205/-58 -38/-70/-58 -51/-69/-58 -147/-204/-58 
f -30/-68/-57 -58/-140/-57 -57/-137/-57 -29/-67/-57 
f -35/-66/-56 -30/-68/-56 -29/-67/-56 -47/-65/-56 
f -152/-209/-55 -35/-66/-55 -47/-65/-55 -151/-208/-55 
f -28/-72/-54 -56/-144/-54 -55/-141/-54 -27/-71/-54 
f -41/-70/-53 -28/-72/-53 -27/-71/-53 -45/-69/-53 
f -156/-205/-52 -41/-70/-52 -45/-69/-52 -155/-204/-52 
f -26/-68/-51 -54/-140/-51 -53/-137/-51 -25/-67/-51 
f -44/-66/-50 -26/-68/-50 -25/-67/-50 -49/-65/-50 
f -160/-209/-49 -44/-66/-49 -49/-65/-49 -159/-208/-49 
f -24/-64/-48 -52/-136/-48 -51/-133/-48 -31/-63/-48 
f -23/-62/-47 -24/-64/-47 -31/-63/-47 -59/-61/-47 
f -168/-217/-46 -23/-62/-46 -59/-61/-46 -184/-233/-46 
f -22/-60/-45 -50/-132/-45 -49/-129/-45 -25/-59/-45 
f -21/-58/-44 -22/-60/-44 -25/-59/-44 -53/-57/-44 
f -169/-218/-43 -21/-58/-43 -53/-57/-43 -173/-222/-43 
f -20/-56/-42 -48/-128/-42 -47/-125/-42 -29/-55/-42 
f -19/-54/-41 -20/-56/-41 -29/-55/-41 -57/-53/-41 
f -180/-229/-40 -19/-54/-40 -57/-53/-40 -179/-228/-40 
f -18/-52/-39 -46/-124/-39 -45/-121/-39 -27/-51/-39 
f -17/-50/-38 -18/-52/-38 -27/-51/-38 -55/-49/-38 
f -175/-224/-37 -17/-50/-37 -55/-49/-37 -174/-223/-37 
f -26/-48/-36 -44/-120/-36 -43/-117/-36 -16/-47/-36 
f -54/-46/-35 -26/-48/-35 -16/-47/-35 -15/-45/-35 
f -165/-214/-34 -54/-46/-34 -15/-45/-34 -166/-215/-34 
f -16/-44/-33 -43/-116/-33 -42/-113/-33 -14/-43/-33 
f -15/-42/-32 -16/-44/-32 -14/-43/-32 -13/-41/-32 
f -166/-215/-31 -15/-42/-31 -13/-41/-31 -167/-216/-31 
f -14/-40/-30 -42/-112/-30 -52/-109/-30 -24/-39/-30 
f -13/-38/-29 -14/-40/-29 -24/-39/-29 -23/-37/-29 
f -167/-216/-28 -13/-38/-28 -23/-37/-28 -168/-217/-28 
f -28/-36/-27 -41/-108/-27 -40/-105/-27 -12/-35/-27 
f -56/-34/-26 -28/-36/-26 -12/-35/-26 -11/-33/-26 
f -172/-221/-25 -56/-34/-25 -11/-33/-25 -171/-220/-25 
f -12/-32/-24 -40/-104/-24 -39/-101/-24 -10/-31/-24 
f -11/-30/-23 -12/-32/-23 -10/-31/-23 -9/-29/-23 
f -171/-220/-22 -11/-30/-22 -9/-29/-22 -170/-219/-22 
f -10/-28/-21 -39/-100/-21 -50/-97/-21 -22/-27/-21 
f -9/-26/-20 -10/-28/-20 -22/-27/-20 -21/-25/-20 
f -170/-219/-19 -9/-26/-19 -21/-25/-19 -169/-218/-19 
f -32/-24/-18 -38/-96/-18 -37/-93/-18 -8/-23/-18 
f -60/-22/-17 -32/-24/-17 -8/-23/-17 -7/-21/-17 
f -183/-232/-16 -60/-22/-16 -7/-21/-16 -182/-231/-16 
f -8/-20/-15 -37/-92/-15 -36/-89/-15 -6/-19/-15 
f -7/-18/-14 -8/-20/-14 -6/-19/-14 -5/-17/-14 
f -182/-231/-13 -7/-18/-13 -5/-17/-13 -181/-230/-13 
f -6/-16/-12 -36/-88/-12 -48/-85/-12 -20/-15/-12 
f -5/-14/-11 -6/-16/-11 -20/-15/-11 -19/-13/-11 
f -181/-230/-10 -5/-14/-10 -19/-13/-10 -180/-229/-10 
f -30/-12/-9 -35/-84/-9 -34/-81/-9 -4/-11/-9 
f -58/-10/-8 -30/-12/-8 -4/-11/-8 -3/-9/-8 
f -178/-227/-7 -58/-10/-7 -3/-9/-7 -177/-226/-7 
f -4/-8/-6 -34/-80/-6 -33/-77/-6 -2/-7/-6 
f -3/-6/-5 -4/-8/-5 -2/-7/-5 -1/-5/-5 
f -177/-226/-4 -3/-6/-4 -1/-5/-4 -176/-225/-4 
f -2/-4/-3 -33/-76/-3 -46/-73/-3 -18/-3/-3 
f -1/-2/-2 -2/-4/-2 -18/-3/-2 -17/-1/-2 
f -176/-225/-1 -1/-2/-1 -17/-1/-1 -175/-224/-1 
# 174 polygons - 16 triangles

#
# object Box002
#

v  83566.7422 393073.9375 1067919.3750
v  79639.7422 393073.9375 1078169.0000
v  71351.4375 393073.9375 1085364.6250
v  55665.6250 393073.9375 895287.3750
v  54551.5703 393073.9375 1090865.5000
v  11024.3086 393073.9375 1098540.5000
v  -16893.3320 393073.9375 1095190.2500
v  -6643.7832 393073.9375 1099117.2500
v  -24089.0527 393073.9375 1086902.0000
v  -29589.8594 393073.9375 1070102.1250
v  -57491.0234 393073.9375 911866.6875
v  82989.9297 393073.9375 1050251.2500
v  21673.7188 514119.9688 897907.8125
v  -22755.7344 514119.9688 913462.1875
v  4021.1230 514119.9688 1065321.3750
v  49770.8203 514119.9688 1057254.5000
v  70724.7969 408951.1875 889258.7500
v  70724.7969 464312.1875 889258.7500
v  98821.8984 464312.1875 1048605.5000
v  98821.8984 408951.1875 1048605.5000
v  12670.1445 408951.1875 1114372.5000
v  58419.8438 408951.1875 1106305.5000
v  58419.8477 464312.1875 1106305.5000
v  12670.1406 464312.1875 1114372.5000
v  99303.6563 473845.7188 1069264.6250
v  99540.1484 464312.1875 1070605.8750
v  -7989.0293 473845.7188 1114854.2500
v  -9330.2676 464312.1875 1115090.7500
v  71230.6719 511006.9688 1053470.5000
v  45478.5078 511006.9688 907422.6875
v  53554.7656 511007.0000 1078714.3750
v  7805.0684 511006.9688 1086781.2500
v  99540.1484 408951.1875 1070605.8750
v  -38180.3164 464312.1875 1094889.7500
v  -45029.9570 464312.1875 1073970.3750
v  -45029.9570 408951.1875 1073970.3750
v  -38180.3164 408951.1875 1094889.7500
v  95756.2109 486103.0938 1049146.0000
v  97411.6797 484741.1875 1058534.7500
v  89397.0938 499333.3125 1066862.6250
v  86559.1328 501668.0000 1050767.7500
v  74778.1172 508088.5625 1073589.1250
v  98594.1641 480655.3750 1065240.8750
v  91424.2109 492329.0938 1078359.0000
v  77312.0156 499333.3125 1087959.5000
v  56257.5938 501668.0313 1094042.7500
v  92640.4766 480655.3750 1085256.7500
v  78832.3516 484741.1875 1096581.8750
v  57879.2852 486103.1250 1103239.8750
v  93045.8984 464312.1875 1087556.0000
v  79339.1328 464312.1875 1099455.8750
v  12129.5781 486103.0938 1111306.7500
v  2740.8965 484741.1563 1112962.2500
v  -5586.9980 499333.2813 1104947.6250
v  10507.8906 501668.0000 1102109.7500
v  -12313.5391 508088.5625 1090328.7500
v  -17438.7227 511006.9688 1069105.3750
v  -3965.3066 480655.3750 1114144.7500
v  -17083.3418 492329.0625 1106974.7500
v  -26683.9727 499333.2813 1092862.6250
v  -32767.1875 501668.0313 1071808.1250
v  -23981.1504 480655.3750 1108191.0000
v  -35306.2383 484741.1563 1094382.8750
v  -41964.2617 486103.0938 1073429.8750
v  -26280.4199 464312.1875 1108596.5000
v  60806.9727 501668.0000 904719.8750
v  70004.0469 486103.0938 903098.1875
v  93045.8984 408951.1875 1087556.0000
v  79339.1250 408951.1875 1099456.0000
v  -26280.4199 408951.1875 1108596.5000
v  -9330.2637 408951.1875 1115090.7500
v  11744.3633 394066.2500 1105467.0000
v  56243.9414 394066.2500 1097620.5000
v  -36344.8984 394066.2500 1071794.5000
v  -64331.7891 394066.2500 913072.8750
v  78839.8984 402004.8750 1098575.2500
v  58178.0781 402004.8750 1105340.5000
v  -37299.6172 402004.8750 1094390.5000
v  -44064.9531 402004.8750 1073728.6250
v  97832.4063 402004.8750 1048708.3750
v  98541.8203 402004.8750 1070438.0000
v  92208.0156 402004.8750 1086969.3750
v  12567.2773 402004.8750 1113383.0000
v  -9162.3613 402004.8750 1114092.3750
v  -25693.7285 402004.8750 1107758.6250
v  12498.8809 397043.2500 1117218.0000
v  59554.0000 397043.2500 1108920.8750
v  -43129.8438 397043.2500 1078266.2500
v  -72018.8828 397043.2500 914428.3125
v  -72149.8125 402004.8750 914451.4375
v  -73127.0625 408951.1875 914623.7500
v  80262.4453 397043.2500 1102140.2500
v  74846.0469 394066.2500 1091529.6250
v  -36349.2422 397043.2500 1098974.7500
v  -30253.9805 394066.2500 1090396.6250
v  98505.6563 397043.2500 1053292.1250
v  99216.6797 397043.2500 1075070.8750
v  89916.4141 394066.2500 1049531.2500
v  90555.1172 394066.2500 1069094.7500
v  93123.2422 397043.2500 1090974.8750
v  85504.9375 394066.2500 1082275.7500
v  -9279.7930 397043.2500 1117929.0000
v  -7819.1172 394066.2500 1106105.6250
v  -25183.7988 397043.2500 1111835.5000
v  -21000.1816 394066.2500 1101055.5000
v  -73113.5156 464312.1875 914700.5625
v  -44215.5781 511006.9688 917246.1250
v  -60864.2891 501668.0000 912461.5000
v  -70047.8203 486103.0938 914160.0000
v  62506.3828 394066.2500 894081.1250
v  69616.6250 397043.2500 889454.1875
v  69747.5469 402004.8750 889431.1250
v  -47877.2500 406302.1250 915431.4375
v  -52773.2852 407012.3438 916294.6875
v  -56200.5156 408094.9688 913204.8750
v  51538.2891 407012.3438 894207.6875
v  -56227.7891 409128.7188 913209.6875
v  -57050.3203 414975.2188 913354.7500
v  -57036.7773 461383.1250 913431.5625
v  -54624.2773 478531.1250 913006.1875
v  -48000.2266 489764.4375 911759.0000
v  -20050.0625 498954.1563 906830.6250
v  -36937.5781 496504.4375 909808.3125
v  54361.0625 409128.7188 893709.9375
v  18183.3320 498954.1563 900089.0625
v  35070.8438 496504.4375 897111.3125
v  52771.0938 478531.1250 893990.3125
v  46133.5000 489764.4375 895160.6875
v  55183.5938 461383.1250 893564.8750
v  55183.5938 414975.2188 893564.8750
v  54333.7813 408094.9688 893714.7500
v  47219.1094 406302.1250 898342.5000
# 132 vertices

vn 0.0000 -1.0000 -0.0000
vn 0.0000 1.0000 -0.0000
vn 0.9848 0.0000 -0.1736
vn 0.1736 0.0000 0.9848
vn 0.9993 0.0202 -0.0326
vn 0.0326 0.0202 0.9993
vn 0.1393 0.9899 -0.0246
vn 0.0246 0.9899 0.1393
vn 0.9995 0.0000 -0.0326
vn -0.9504 0.0000 0.3112
vn 0.9782 0.1414 -0.1520
vn 0.8549 0.5131 -0.0763
vn 0.5240 0.8511 0.0311
vn 0.1622 0.9802 0.1136
vn 0.9877 0.1179 -0.1023
vn 0.8957 0.4319 0.1052
vn 0.5934 0.7296 0.3399
vn 0.2316 0.8484 0.4760
vn 0.9959 0.0707 -0.0559
vn 0.9257 0.2592 0.2754
vn 0.6441 0.4378 0.6273
vn 0.2905 0.5090 0.8102
vn 0.9313 0.0733 0.3568
vn 0.6507 0.1216 0.7495
vn 0.3081 0.1400 0.9410
vn 0.1520 0.1414 0.9782
vn 0.0763 0.5131 0.8549
vn -0.0311 0.8511 0.5240
vn -0.1136 0.9802 0.1622
vn 0.1023 0.1179 0.9877
vn -0.1052 0.4319 0.8957
vn -0.3399 0.7296 0.5934
vn -0.4760 0.8484 0.2316
vn 0.0559 0.0707 0.9959
vn -0.2754 0.2592 0.9257
vn -0.6273 0.4378 0.6441
vn -0.8102 0.5090 0.2905
vn -0.3568 0.0733 0.9313
vn -0.7495 0.1216 0.6507
vn -0.9410 0.1400 0.3081
vn 0.5067 0.8575 -0.0893
vn 0.8445 0.5145 -0.1489
vn 0.9749 0.1414 -0.1719
vn 0.0893 0.8575 0.5067
vn 0.1489 0.5145 0.8445
vn 0.1719 0.1414 0.9749
vn 0.9338 0.0000 0.3578
vn 0.6556 -0.0000 0.7551
vn 0.3112 -0.0000 0.9504
vn -0.7551 0.0000 0.6556
vn -0.3578 -0.0000 0.9338
vn 0.0326 -0.0000 0.9995
vn 0.0246 -0.9899 0.1393
vn -0.1393 -0.9899 0.0246
vn 0.3080 -0.1414 0.9408
vn -0.9408 -0.1414 0.3080
vn 0.9894 -0.1414 -0.0323
vn 0.9244 -0.1414 0.3542
vn 0.6490 -0.1414 0.7475
vn 0.0323 -0.1414 0.9894
vn -0.3542 -0.1414 0.9244
vn -0.7475 -0.1414 0.6490
vn 0.0428 -0.9691 0.2428
vn 0.1383 0.6045 0.7845
vn 0.1719 -0.1414 0.9749
vn -0.3509 -0.9344 0.0619
vn -0.9845 -0.0268 0.1736
vn -0.9749 -0.1414 0.1719
vn 0.2463 0.6111 0.7522
vn 0.0763 -0.9695 0.2330
vn 0.0440 -0.9899 0.1344
vn -0.9451 0.1049 0.3095
vn -0.3154 -0.9433 0.1033
vn -0.1344 -0.9899 0.0440
vn 0.9940 0.1049 -0.0324
vn 0.3317 -0.9433 -0.0108
vn 0.1413 -0.9899 -0.0046
vn 0.8480 0.4187 0.3249
vn 0.2610 -0.9601 0.1000
vn 0.1321 -0.9899 0.0506
vn 0.5294 0.5899 0.6097
vn 0.1635 -0.9684 0.1883
vn 0.0927 -0.9899 0.1068
vn 0.0258 0.6111 0.7911
vn 0.0080 -0.9695 0.2451
vn 0.0046 -0.9899 0.1413
vn -0.2889 0.5899 0.7540
vn -0.0892 -0.9684 0.2328
vn -0.0506 -0.9899 0.1321
vn -0.6857 0.4187 0.5953
vn -0.2111 -0.9601 0.1832
vn -0.1068 -0.9899 0.0927
vn -0.9848 0.0000 0.1736
vn -0.1393 0.9899 0.0246
vn -0.5067 0.8575 0.0893
vn -0.8445 0.5145 0.1489
vn -0.9749 0.1414 0.1719
vn 0.1393 -0.9899 -0.0246
vn 0.3509 -0.9344 -0.0619
vn 0.9845 -0.0268 -0.1736
vn 0.9749 -0.1414 -0.1719
vn -0.0865 -0.9087 -0.4084
vn -0.1602 0.0017 -0.9871
vn -0.1744 -0.0025 -0.9847
vn -0.1736 0.0000 -0.9848
vn -0.1742 0.0002 -0.9847
vn -0.0372 -0.9777 -0.2067
vn -0.1547 0.2462 -0.9568
vn -0.1160 0.3362 -0.9346
vn 0.1302 -0.0662 -0.9893
vn -0.0789 0.0026 -0.9969
vn -0.0835 0.0130 -0.9964
vn -0.0788 0.0015 -0.9969
vn -0.0811 -0.0133 -0.9966
vn -0.0999 -0.0503 -0.9937
vn -0.0512 0.2583 -0.9647
vn -0.2124 0.3595 -0.9087
vn -0.2576 0.1468 -0.9550
vn 0.1800 0.1806 -0.9669
vn 0.1526 0.4976 -0.8539
vn 0.3419 0.2950 -0.8922
vn 0.0266 0.3457 -0.9379
vn -0.2670 0.0000 -0.9637
vn -0.2623 0.0130 -0.9649
vn -0.2668 0.0026 -0.9637
vn -0.3674 -0.2375 -0.8992
vn -0.4005 -0.1881 -0.8968
# 127 vertex normals

vt 0.8994 0.1257 0.0000
vt 0.9288 0.1647 0.0000
vt 0.9453 0.2285 0.0000
vt 0.5002 0.1087 0.0000
vt 0.9527 0.3486 0.0000
vt 0.9517 0.6524 0.0000
vt 0.9269 0.8353 0.0000
vt 0.9453 0.7713 0.0000
vt 0.9004 0.8746 0.0000
vt 0.8477 0.8912 0.0000
vt 0.4999 0.8912 0.0000
vt 0.8487 0.1087 0.0000
vt 0.5000 0.3410 0.0000
vt 0.5000 0.6586 0.0000
vt 0.1485 0.6586 0.0000
vt 0.1485 0.3410 0.0000
vt 0.5000 0.1309 0.0000
vt 0.5000 0.5873 0.0000
vt 0.1485 0.5873 0.0000
vt 0.1485 0.1309 0.0000
vt 0.3410 0.1316 0.0000
vt 0.6589 0.1309 0.0000
vt 0.6586 0.5873 0.0000
vt 0.3410 0.5903 0.0000
vt 0.0000 1.0000 0.0000
vt 0.1485 0.7851 0.0000
vt 0.5000 0.7851 0.0000
vt 0.5000 0.8510 0.0000
vt 0.1485 0.8510 0.0000
vt 0.6683 0.3055 0.0000
vt 0.6716 0.2116 0.0000
vt 0.3544 0.2175 0.0000
vt 0.3510 0.3107 0.0000
vt 1.0448 -0.0232 0.0000
vt 1.1734 -0.0746 0.0000
vt 1.1551 0.4561 0.0000
vt 1.0310 0.4889 0.0000
vt -0.0347 0.4939 0.0000
vt -0.1600 0.4618 0.0000
vt -0.1775 -0.0727 0.0000
vt -0.0479 -0.0216 0.0000
vt 0.0699 0.7587 0.0000
vt -0.0175 0.8601 0.0000
vt -0.1136 0.8917 0.0000
vt -0.1357 0.8769 0.0000
vt -0.2185 0.8532 0.0000
vt -0.1059 0.8013 0.0000
vt -0.1289 0.6262 0.0000
vt -0.2049 0.3518 0.0000
vt 0.1881 0.7605 0.0000
vt 0.0705 0.8615 0.0000
vt -0.0119 0.8932 0.0000
vt -0.0340 0.8785 0.0000
vt -0.0590 0.8557 0.0000
vt -0.0179 0.8026 0.0000
vt -0.0107 0.6280 0.0000
vt -0.0124 0.3548 0.0000
vt 0.1485 0.7192 0.0000
vt 0.5000 0.7192 0.0000
vt 0.1485 0.6532 0.0000
vt 0.5000 0.6532 0.0000
vt 0.6651 0.3995 0.0000
vt 0.3477 0.4039 0.0000
vt 0.6618 0.4934 0.0000
vt 0.3443 0.4971 0.0000
vt 0.9161 0.0281 0.0000
vt 0.9068 0.5217 0.0000
vt 0.7875 0.0795 0.0000
vt 0.7827 0.5545 0.0000
vt 0.0905 0.5261 0.0000
vt 0.0817 0.0294 0.0000
vt 0.2157 0.5582 0.0000
vt 0.2114 0.0805 0.0000
vt 0.3442 0.0766 0.0000
vt 0.3453 0.0583 0.0000
vt 0.6475 0.0562 0.0000
vt 0.6504 0.0749 0.0000
vt 0.8490 0.2307 0.0000
vt 0.5000 0.2307 0.0000
vt 0.5000 0.2640 0.0000
vt 0.8482 0.2640 0.0000
vt 1.0553 0.2022 0.0000
vt 1.0920 0.1935 0.0000
vt 1.0999 0.3430 0.0000
vt 1.0631 0.3444 0.0000
vt 0.9047 0.9711 0.0000
vt 0.9061 1.0033 0.0000
vt 0.8406 1.0173 0.0000
vt 0.8424 0.9858 0.0000
vt 0.8431 0.0159 0.0000
vt 0.8413 -0.0150 0.0000
vt 0.9061 -0.0010 0.0000
vt 0.9044 0.0307 0.0000
vt 0.9499 0.0316 0.0000
vt 0.9668 0.0002 0.0000
vt 1.0138 0.0639 0.0000
vt 0.9925 0.0891 0.0000
vt 1.0187 0.0975 0.0000
vt 1.0487 0.0750 0.0000
vt 1.0763 0.1815 0.0000
vt 1.0435 0.1932 0.0000
vt 1.0615 0.6550 0.0000
vt 1.0982 0.6559 0.0000
vt 1.0906 0.8051 0.0000
vt 1.0543 0.7966 0.0000
vt 1.0440 0.8092 0.0000
vt 1.0769 0.8218 0.0000
vt 1.0484 0.9284 0.0000
vt 1.0180 0.9051 0.0000
vt 0.9919 0.9070 0.0000
vt 1.0136 0.9310 0.0000
vt 0.9678 0.9948 0.0000
vt 0.9509 0.9647 0.0000
vt 0.3431 0.0949 0.0000
vt 0.6532 0.0936 0.0000
vt 0.3421 0.1132 0.0000
vt 0.6561 0.1122 0.0000
vt 0.8498 0.1974 0.0000
vt 0.5000 0.1974 0.0000
vt 0.8507 0.1642 0.0000
vt 0.5000 0.1642 0.0000
vt 0.8515 0.1309 0.0000
vt 1.0186 0.2110 0.0000
vt 1.0263 0.3458 0.0000
vt 0.9820 0.2197 0.0000
vt 0.9895 0.3472 0.0000
vt 0.9032 0.9390 0.0000
vt 0.8442 0.9542 0.0000
vt 0.9018 0.9068 0.0000
vt 0.8459 0.9227 0.0000
vt 0.8450 0.0468 0.0000
vt 0.9028 0.0624 0.0000
vt 0.8468 0.0778 0.0000
vt 0.9011 0.0941 0.0000
vt 0.9331 0.0630 0.0000
vt 0.9713 0.1143 0.0000
vt 0.9163 0.0944 0.0000
vt 0.9501 0.1395 0.0000
vt 0.9887 0.1199 0.0000
vt 1.0108 0.2050 0.0000
vt 0.9588 0.1423 0.0000
vt 0.9780 0.2167 0.0000
vt 1.0249 0.6542 0.0000
vt 1.0180 0.7882 0.0000
vt 0.9883 0.6533 0.0000
vt 0.9816 0.7797 0.0000
vt 1.0111 0.7965 0.0000
vt 0.9877 0.8818 0.0000
vt 0.9782 0.7839 0.0000
vt 0.9573 0.8585 0.0000
vt 0.9702 0.8831 0.0000
vt 0.9341 0.9347 0.0000
vt 0.9486 0.8592 0.0000
vt 0.9172 0.9046 0.0000
vt 0.8516 0.5873 0.0000
vt 0.8515 0.7851 0.0000
vt 0.8515 0.8510 0.0000
vt 0.8516 0.7192 0.0000
vt 0.8516 0.6532 0.0000
vt 0.1510 0.2307 0.0000
vt 0.1519 0.2640 0.0000
vt 0.1502 0.1974 0.0000
vt 0.1494 0.1642 0.0000
# 163 texture coords

g Box002
usemtl 02___Default
s off
f -132/-163/-127 -131/-162/-127 -130/-161/-127 -129/-160/-127 
f -130/-161/-127 -128/-159/-127 -127/-158/-127 -126/-157/-127 
f -127/-158/-127 -125/-156/-127 -126/-157/-127 
f -126/-157/-127 -124/-155/-127 -123/-154/-127 -130/-161/-127 
f -123/-154/-127 -122/-153/-127 -129/-160/-127 -130/-161/-127 
f -121/-152/-127 -132/-163/-127 -129/-160/-127 
f -120/-151/-126 -119/-150/-126 -118/-149/-126 -117/-148/-126 
f -116/-147/-125 -115/-146/-125 -114/-145/-125 -113/-144/-125 
f -112/-143/-124 -111/-142/-124 -110/-141/-124 -109/-140/-124 
f -114/-145/-123 -108/-139/-123 -107/-139/-123 
f -109/-140/-122 -106/-139/-122 -105/-139/-122 
f -104/-138/-121 -103/-137/-121 -120/-136/-121 -117/-135/-121 
f -102/-134/-120 -117/-133/-120 -118/-132/-120 -101/-131/-120 
f -100/-130/-119 -113/-129/-119 -114/-128/-119 -107/-127/-119 
f -99/-126/-118 -98/-125/-118 -97/-124/-118 -96/-123/-118 
f -114/-145/-117 -95/-122/-117 -94/-139/-117 
f -93/-139/-116 -94/-139/-116 -95/-122/-116 -92/-121/-116 
f -91/-139/-115 -93/-139/-115 -92/-121/-115 -104/-120/-115 
f -102/-119/-114 -91/-139/-114 -104/-120/-114 -117/-118/-114 
f -114/-145/-113 -94/-139/-113 -90/-139/-113 
f -89/-139/-112 -90/-139/-112 -94/-139/-112 -93/-139/-112 
f -88/-139/-111 -89/-139/-111 -93/-139/-111 -91/-139/-111 
f -87/-117/-110 -88/-139/-110 -91/-139/-110 -102/-119/-110 
f -114/-145/-109 -90/-139/-109 -108/-139/-109 
f -86/-139/-108 -108/-139/-108 -90/-139/-108 -89/-139/-108 
f -85/-139/-107 -86/-139/-107 -89/-139/-107 -88/-139/-107 
f -84/-116/-106 -85/-139/-106 -88/-139/-106 -87/-117/-106 
f -83/-139/-105 -107/-139/-105 -108/-139/-105 -86/-139/-105 
f -82/-139/-104 -83/-139/-104 -86/-139/-104 -85/-139/-104 
f -110/-115/-103 -82/-139/-103 -85/-139/-103 -84/-116/-103 
f -109/-140/-102 -81/-114/-102 -80/-139/-102 
f -79/-139/-101 -80/-139/-101 -81/-114/-101 -78/-113/-101 
f -77/-139/-100 -79/-139/-100 -78/-113/-100 -101/-112/-100 
f -76/-111/-99 -77/-139/-99 -101/-112/-99 -118/-110/-99 
f -109/-140/-98 -80/-139/-98 -75/-139/-98 
f -74/-139/-97 -75/-139/-97 -80/-139/-97 -79/-139/-97 
f -73/-139/-96 -74/-139/-96 -79/-139/-96 -77/-139/-96 
f -72/-109/-95 -73/-139/-95 -77/-139/-95 -76/-111/-95 
f -109/-140/-94 -75/-139/-94 -106/-139/-94 
f -71/-139/-93 -106/-139/-93 -75/-139/-93 -74/-139/-93 
f -70/-139/-92 -71/-139/-92 -74/-139/-92 -73/-139/-92 
f -69/-108/-91 -70/-139/-91 -73/-139/-91 -72/-109/-91 
f -68/-139/-90 -105/-139/-90 -106/-139/-90 -71/-139/-90 
f -99/-139/-89 -68/-139/-89 -71/-139/-89 -70/-139/-89 
f -98/-107/-88 -99/-139/-88 -70/-139/-88 -69/-108/-88 
f -92/-106/-87 -67/-105/-87 -103/-137/-87 -104/-138/-87 
f -95/-104/-86 -66/-103/-86 -67/-105/-86 -92/-106/-86 
f -114/-145/-85 -115/-146/-85 -66/-103/-85 -95/-104/-85 
f -87/-102/-84 -102/-134/-84 -101/-131/-84 -78/-101/-84 
f -84/-100/-83 -87/-102/-83 -78/-101/-83 -81/-99/-83 
f -110/-141/-82 -84/-100/-82 -81/-99/-82 -109/-140/-82 
f -65/-98/-81 -100/-130/-81 -107/-127/-81 -83/-97/-81 
f -64/-96/-80 -65/-98/-80 -83/-97/-80 -82/-95/-80 
f -111/-142/-79 -64/-96/-79 -82/-95/-79 -110/-141/-79 
f -68/-94/-78 -99/-126/-78 -96/-123/-78 -63/-93/-78 
f -105/-92/-77 -68/-94/-77 -63/-93/-77 -62/-91/-77 
f -109/-140/-76 -105/-92/-76 -62/-91/-76 -112/-143/-76 
f -61/-90/-75 -127/-89/-75 -128/-88/-75 -60/-87/-75 
f -59/-86/-74 -58/-85/-74 -122/-84/-74 -123/-83/-74 
f -57/-82/-73 -64/-81/-73 -111/-80/-73 -56/-79/-73 
f -55/-78/-72 -96/-77/-72 -97/-76/-72 -54/-75/-72 
f -53/-74/-71 -113/-73/-71 -100/-72/-71 -52/-71/-71 
f -52/-70/-70 -100/-69/-70 -65/-68/-70 -51/-67/-70 
f -51/-66/-69 -65/-65/-69 -64/-64/-69 -57/-63/-69 
f -50/-62/-68 -112/-61/-68 -62/-60/-68 -49/-59/-68 
f -49/-58/-67 -62/-57/-67 -63/-56/-67 -48/-55/-67 
f -48/-54/-66 -63/-53/-66 -96/-52/-66 -55/-51/-66 
f -47/-50/-65 -61/-90/-65 -60/-87/-65 -46/-49/-65 
f -50/-48/-64 -47/-50/-64 -46/-49/-64 -56/-47/-64 
f -112/-143/-63 -50/-48/-63 -56/-47/-63 -111/-142/-63 
f -59/-86/-62 -45/-46/-62 -44/-45/-62 -58/-85/-62 
f -54/-44/-61 -43/-43/-61 -44/-45/-61 -45/-46/-61 
f -97/-42/-60 -42/-147/-60 -43/-43/-60 -54/-44/-60 
f -41/-41/-59 -57/-82/-59 -56/-79/-59 -46/-40/-59 
f -40/-39/-58 -41/-41/-58 -46/-40/-58 -60/-38/-58 
f -130/-161/-57 -40/-39/-57 -60/-38/-57 -128/-159/-57 
f -39/-37/-56 -55/-78/-56 -54/-75/-56 -45/-36/-56 
f -38/-35/-55 -39/-37/-55 -45/-36/-55 -59/-34/-55 
f -124/-155/-54 -38/-35/-54 -59/-34/-54 -123/-154/-54 
f -37/-33/-53 -53/-74/-53 -52/-71/-53 -36/-32/-53 
f -35/-31/-52 -37/-33/-52 -36/-32/-52 -34/-30/-52 
f -121/-152/-51 -35/-31/-51 -34/-30/-51 -132/-163/-51 
f -36/-29/-50 -52/-70/-50 -51/-67/-50 -33/-28/-50 
f -34/-27/-49 -36/-29/-49 -33/-28/-49 -32/-26/-49 
f -132/-163/-48 -34/-27/-48 -32/-26/-48 -131/-162/-48 
f -33/-25/-47 -51/-66/-47 -57/-63/-47 -41/-24/-47 
f -32/-23/-46 -33/-25/-46 -41/-24/-46 -40/-22/-46 
f -131/-162/-45 -32/-23/-45 -40/-22/-45 -130/-161/-45 
f -47/-21/-44 -50/-62/-44 -49/-59/-44 -31/-20/-44 
f -61/-19/-43 -47/-21/-43 -31/-20/-43 -30/-18/-43 
f -127/-158/-42 -61/-19/-42 -30/-18/-42 -125/-156/-42 
f -31/-17/-41 -49/-58/-41 -48/-55/-41 -29/-16/-41 
f -30/-15/-40 -31/-17/-40 -29/-16/-40 -28/-14/-40 
f -125/-156/-39 -30/-15/-39 -28/-14/-39 -126/-157/-39 
f -29/-13/-38 -48/-54/-38 -55/-51/-38 -39/-12/-38 
f -28/-11/-37 -29/-13/-37 -39/-12/-37 -38/-10/-37 
f -126/-157/-36 -28/-11/-36 -38/-10/-36 -124/-155/-36 
f -97/-42/-35 -98/-9/-35 -27/-146/-35 -42/-147/-35 
f -76/-8/-34 -118/-7/-34 -119/-136/-34 -26/-137/-34 
f -72/-6/-33 -76/-8/-33 -26/-137/-33 -25/-105/-33 
f -69/-5/-32 -72/-6/-32 -25/-105/-32 -24/-103/-32 
f -98/-9/-31 -69/-5/-31 -24/-103/-31 -27/-146/-31 
f -35/-4/-30 -121/-3/-30 -129/-84/-30 -23/-85/-30 
f -22/-45/-29 -37/-2/-29 -35/-4/-29 -23/-85/-29 
f -53/-1/-28 -37/-2/-28 -22/-45/-28 -21/-43/-28 
f -113/-144/-27 -53/-1/-27 -21/-43/-27 -116/-147/-27 
f -20/-153/-26 -19/-85/-26 -18/-45/-26 -17/-85/-26 
f -16/-43/-25 -15/-147/-25 -14/-146/-25 -18/-45/-25 
f -14/-146/-24 -13/-103/-24 -12/-105/-24 -11/-136/-24 
f -12/-105/-23 -10/-137/-23 -11/-136/-23 
f -18/-45/-22 -14/-146/-22 -11/-136/-22 -9/-43/-22 
f -11/-136/-23 -8/-151/-23 -7/-137/-23 -6/-103/-23 
f -7/-137/-23 -5/-105/-23 -6/-103/-23 
f -6/-103/-23 -4/-146/-23 -3/-147/-23 -9/-43/-23 
f -11/-136/-23 -6/-103/-23 -9/-43/-23 
f -9/-43/-23 -2/-45/-23 -17/-85/-23 -18/-45/-23 
f -20/-153/-21 -17/-85/-21 -1/-84/-21 
f -129/-84/-20 -122/-153/-20 -20/-153/-20 -1/-84/-20 
f -122/-153/-19 -58/-85/-19 -19/-85/-19 -20/-153/-19 
f -58/-85/-18 -44/-45/-18 -18/-45/-18 -19/-85/-18 
f -44/-45/-17 -43/-43/-17 -16/-43/-17 -18/-45/-17 
f -43/-43/-16 -42/-147/-16 -15/-147/-16 -16/-43/-16 
f -42/-147/-15 -27/-146/-15 -14/-146/-15 -15/-147/-15 
f -27/-146/-14 -24/-103/-14 -13/-103/-14 -14/-146/-14 
f -24/-103/-13 -25/-105/-13 -12/-105/-13 -13/-103/-13 
f -25/-105/-12 -26/-137/-12 -10/-137/-12 -12/-105/-12 
f -26/-137/-11 -119/-136/-11 -11/-136/-11 -10/-137/-11 
f -119/-136/-10 -120/-151/-10 -8/-151/-10 -11/-136/-10 
f -120/-151/-9 -103/-137/-9 -7/-137/-9 -8/-151/-9 
f -103/-137/-8 -67/-105/-8 -5/-105/-8 -7/-137/-8 
f -67/-105/-7 -66/-103/-7 -6/-103/-7 -5/-105/-7 
f -66/-103/-6 -115/-146/-6 -4/-146/-6 -6/-103/-6 
f -115/-146/-5 -116/-147/-5 -3/-147/-5 -4/-146/-5 
f -116/-147/-4 -21/-43/-4 -9/-43/-4 -3/-147/-4 
f -21/-43/-3 -22/-45/-3 -2/-45/-3 -9/-43/-3 
f -22/-45/-2 -23/-85/-2 -17/-85/-2 -2/-45/-2 
f -23/-85/-1 -129/-84/-1 -1/-84/-1 -17/-85/-1 
# 123 polygons - 14 triangles

#
# object Sphere001
#

v  34727.7031 423769.1563 909672.0625
v  1734.9109 423521.2813 926222.9375
v  5398.6494 405682.1875 907948.0000
v  13799.2510 445626.9688 879391.8750
v  -32008.8984 456839.3438 890145.5625
v  -16148.0986 478664.9688 888045.6250
v  -19284.2852 408652.8750 908346.1250
v  -34063.8672 424257.7188 920878.0625
v  -39624.5898 434973.1563 898582.8750
v  24530.3359 478465.0000 919312.2500
v  -16128.7637 472183.8125 929766.3750
v  16914.6680 456598.8125 927749.6250
v  22160.3242 485784.9375 889744.0000
v  863.1523 497648.3750 899728.3750
v  15188.4648 492032.6875 914357.2500
v  39307.1250 449731.7500 915343.8125
v  -31801.2930 485038.5625 902059.3125
v  -47634.7031 453769.7188 917665.3125
v  -43511.4375 430563.0625 909532.8125
v  45085.5586 460856.1875 893402.8125
v  10187.5625 479957.0000 884382.2500
v  37683.3633 453521.7813 885198.4375
v  -8273.5293 419961.5000 888166.5000
v  28320.9453 426515.5938 886858.9375
v  16680.1797 409388.6875 897916.6875
v  -14100.9834 497037.9375 907778.5625
v  -21086.4004 487238.2500 921591.6250
v  44484.9258 440222.6563 893639.3125
v  -6059.5083 440625.2813 931634.2500
v  -35739.7773 451647.4688 928154.6250
v  -17705.9766 420344.6250 924904.2500
v  -41447.6328 469406.3750 920992.3125
v  20724.5781 432036.6563 923713.0625
# 33 vertices

vn 0.5036 -0.9533 0.4226
vn -0.3358 0.2832 -0.7660
vn -0.8072 -0.6089 0.0453
vn 0.2360 0.3727 0.6307
vn 0.4432 0.9113 -0.1388
vn 0.7978 0.0837 0.5135
vn -0.8383 0.6270 -0.4648
vn -0.9253 -0.3219 0.2966
vn 0.7574 0.6634 -0.0478
vn 0.3926 0.3616 -0.7038
vn -0.3882 -0.0447 -0.7148
vn 0.8406 -0.7146 -0.1120
vn -1.0707 0.3215 -0.2215
vn -0.0951 0.9317 0.2204
vn 1.1037 -0.1177 0.0520
vn 0.9678 0.3326 0.1108
vn -0.3916 -0.4322 0.6902
vn 0.1038 -1.0028 0.4486
vn -0.0862 -1.0131 0.3667
vn 0.2298 -0.7335 -0.4241
vn 0.5973 -0.4685 -0.4899
vn 0.1758 -0.4594 -0.6069
vn -0.3031 -0.0727 0.7384
vn -0.7774 0.7816 0.1007
vn 0.0199 0.9610 -0.4880
vn 0.5013 0.4721 -0.6297
vn -0.4421 0.9869 -0.4024
vn -0.7323 0.8282 0.0824
vn 0.7733 -0.2909 0.5980
vn -0.0825 -0.6377 0.7117
vn -0.5807 -0.6886 -0.2359
vn -0.0741 -0.9359 -0.1880
vn -1.0910 0.2955 -0.1382
vn -0.6151 -0.1993 -0.5814
vn 0.7048 -0.0012 -0.5707
vn 0.8246 -0.7332 -0.1088
vn 0.1461 0.5783 0.5297
vn 0.8536 0.5532 -0.0585
vn -0.8605 -0.2790 0.4131
vn -0.6230 0.3066 0.5476
vn 0.0441 0.6614 0.4840
vn -0.6068 0.4457 0.4968
vn 0.8979 -0.5408 0.4445
vn 1.0841 -0.3548 0.1102
vn 0.0898 0.0229 0.7617
vn 0.4033 -0.3909 0.7475
vn 0.7092 0.4784 -0.4802
vn 0.9514 -0.0363 -0.3563
vn 0.6219 -0.9670 0.1511
vn -0.0407 -0.9717 -0.1362
vn -0.1967 0.3967 -0.7781
vn -0.2028 0.9563 -0.5160
vn -0.5101 -0.4645 0.6276
vn -0.3725 -0.9037 0.3598
vn 0.0336 1.0175 0.0378
vn -0.4564 1.0111 -0.3330
vn -0.8903 0.1017 0.4171
vn -1.0415 0.4900 -0.0380
vn -1.0946 0.0505 -0.1011
vn -0.0451 -0.9849 -0.1092
vn 0.3483 -0.5299 0.7379
vn 0.5279 -0.9301 0.4422
# 62 vertex normals

g Sphere001
usemtl _crayfishdiffuse
s off
f -33//-62 -32//-62 -31//-62 
f -30//-61 -29//-61 -28//-61 
f -27//-60 -26//-60 -25//-60 
f -24//-59 -23//-59 -22//-59 
f -21//-58 -20//-58 -19//-58 
f -18//-57 -24//-57 -22//-57 
f -29//-56 -17//-56 -28//-56 
f -26//-55 -16//-55 -15//-55 
f -21//-54 -24//-54 -14//-54 
f -30//-53 -13//-53 -12//-53 
f -11//-52 -29//-52 -30//-52 
f -10//-51 -33//-51 -9//-51 
f -25//-50 -16//-50 -17//-50 
f -8//-49 -7//-49 -19//-49 
f -6//-48 -14//-48 -18//-48 
f -14//-47 -24//-47 -18//-47 
f -5//-46 -4//-46 -3//-46 
f -32//-45 -3//-45 -31//-45 
f -31//-44 -3//-44 -27//-44 
f -9//-43 -11//-43 -10//-43 
f -30//-42 -12//-42 -6//-42 
f -10//-41 -11//-41 -30//-41 
f -5//-40 -23//-40 -4//-40 
f -17//-39 -2//-39 -7//-39 
f -13//-38 -20//-38 -21//-38 
f -12//-37 -13//-37 -21//-37 
f -28//-36 -17//-36 -20//-36 
f -17//-35 -7//-35 -8//-35 
f -18//-34 -22//-34 -1//-34 
f -32//-33 -5//-33 -3//-33 
f -27//-32 -25//-32 -11//-32 
f -9//-31 -27//-31 -11//-31 
f -25//-30 -17//-30 -29//-30 
f -11//-29 -25//-29 -29//-29 
f -10//-28 -30//-28 -6//-28 
f -10//-27 -6//-27 -33//-27 
f -19//-26 -23//-26 -24//-26 
f -21//-25 -19//-25 -24//-25 
f -26//-24 -4//-24 -16//-24 
f -23//-23 -2//-23 -4//-23 
f -19//-22 -7//-22 -23//-22 
f -23//-21 -7//-21 -2//-21 
f -18//-20 -1//-20 -33//-20 
f -6//-19 -18//-19 -33//-19 
f -22//-18 -23//-18 -5//-18 
f -22//-17 -5//-17 -1//-17 
f -12//-16 -21//-16 -14//-16 
f -6//-15 -12//-15 -14//-15 
f -33//-14 -31//-14 -9//-14 
f -31//-13 -27//-13 -9//-13 
f -30//-12 -28//-12 -13//-12 
f -13//-11 -28//-11 -20//-11 
f -3//-10 -4//-10 -26//-10 
f -3//-9 -26//-9 -27//-9 
f -20//-8 -8//-8 -19//-8 
f -20//-7 -17//-7 -8//-7 
f -4//-6 -2//-6 -16//-6 
f -16//-5 -2//-5 -17//-5 
f -15//-4 -16//-4 -25//-4 
f -25//-3 -26//-3 -15//-3 
f -1//-2 -5//-2 -32//-2 
f -33//-1 -1//-1 -32//-1 
# 0 polygons - 62 triangles

